<svg width="30" height="30" viewBox="0 0 30 30" fill="none" xmlns="http://www.w3.org/2000/svg">
<path fill-rule="evenodd" clip-rule="evenodd" d="M5.84459 6.58108C5.69906 6.58108 5.58108 6.69906 5.58108 6.84459V19.4932C5.58108 19.6388 5.69906 19.7568 5.84459 19.7568H24.8176C24.9631 19.7568 25.0811 19.6388 25.0811 19.4932V6.84459C25.0811 6.69906 24.9631 6.58108 24.8176 6.58108H5.84459ZM4 6.84459C4 5.82585 4.82585 5 5.84459 5H24.8176C25.8363 5 26.6622 5.82585 26.6622 6.84459V19.4932C26.6622 20.512 25.8363 21.3378 24.8176 21.3378H5.84459C4.82585 21.3378 4 20.512 4 19.4932V6.84459Z" fill="#333333"/>
<path fill-rule="evenodd" clip-rule="evenodd" d="M9.7969 10.7973V15.5405H16.6483V10.7973H9.7969ZM8.21582 10.5338C8.21582 9.80608 8.80572 9.21619 9.53339 9.21619H16.9118C17.6394 9.21619 18.2293 9.80608 18.2293 10.5338V15.804C18.2293 16.5317 17.6394 17.1216 16.9118 17.1216H9.53339C8.80572 17.1216 8.21582 16.5317 8.21582 15.804V10.5338Z" fill="#333333"/>
<path d="M22.182 10.5338C22.7641 10.5338 23.236 10.0619 23.236 9.47971C23.236 8.89758 22.7641 8.42566 22.182 8.42566C21.5998 8.42566 21.1279 8.89758 21.1279 9.47971C21.1279 10.0619 21.5998 10.5338 22.182 10.5338Z" fill="#333333"/>
<path fill-rule="evenodd" clip-rule="evenodd" d="M20.8652 13.169C20.8652 12.7324 21.2192 12.3784 21.6558 12.3784H22.7098C23.1464 12.3784 23.5004 12.7324 23.5004 13.169C23.5004 13.6056 23.1464 13.9595 22.7098 13.9595H21.6558C21.2192 13.9595 20.8652 13.6056 20.8652 13.169Z" fill="#333333"/>
<path fill-rule="evenodd" clip-rule="evenodd" d="M20.8652 16.8582C20.8652 16.4216 21.2192 16.0676 21.6558 16.0676H22.7098C23.1464 16.0676 23.5004 16.4216 23.5004 16.8582C23.5004 17.2948 23.1464 17.6487 22.7098 17.6487H21.6558C21.2192 17.6487 20.8652 17.2948 20.8652 16.8582Z" fill="#333333"/>
<path fill-rule="evenodd" clip-rule="evenodd" d="M9.00636 19.7567C9.44296 19.7567 9.7969 20.1107 9.7969 20.5473V23.7094C9.7969 24.146 9.44296 24.5 9.00636 24.5C8.56976 24.5 8.21582 24.146 8.21582 23.7094V20.5473C8.21582 20.1107 8.56976 19.7567 9.00636 19.7567Z" fill="#333333"/>
<path fill-rule="evenodd" clip-rule="evenodd" d="M21.6558 19.7567C22.0924 19.7567 22.4463 20.1107 22.4463 20.5473V23.7094C22.4463 24.146 22.0924 24.5 21.6558 24.5C21.2192 24.5 20.8652 24.146 20.8652 23.7094V20.5473C20.8652 20.1107 21.2192 19.7567 21.6558 19.7567Z" fill="#333333"/>
</svg>
