<svg width="30" height="30" viewBox="0 0 30 30" fill="none" xmlns="http://www.w3.org/2000/svg">
<path fill-rule="evenodd" clip-rule="evenodd" d="M4 11.3828C4 10.9557 4.34628 10.6094 4.77344 10.6094H15.0859C15.5131 10.6094 15.8594 10.9557 15.8594 11.3828C15.8594 11.81 15.5131 12.1562 15.0859 12.1562H5.54688V18.8594H24.625V12.1562H22.3047C21.8775 12.1562 21.5312 11.81 21.5312 11.3828C21.5312 10.9557 21.8775 10.6094 22.3047 10.6094H25.3984C25.8256 10.6094 26.1719 10.9557 26.1719 11.3828V19.6328C26.1719 20.06 25.8256 20.4062 25.3984 20.4062H4.77344C4.34628 20.4062 4 20.06 4 19.6328V11.3828Z" fill="#333333"/>
<path fill-rule="evenodd" clip-rule="evenodd" d="M5.03125 19.6328C5.03125 19.2057 5.37753 18.8594 5.80469 18.8594H8.89844C9.3256 18.8594 9.67188 19.2057 9.67188 19.6328V22.7266C9.67188 23.1537 9.3256 23.5 8.89844 23.5H5.80469C5.37753 23.5 5.03125 23.1537 5.03125 22.7266V19.6328ZM6.57812 20.4062V21.9531H8.125V20.4062H6.57812Z" fill="#333333"/>
<path fill-rule="evenodd" clip-rule="evenodd" d="M20.5 19.6328C20.5 19.2057 20.8463 18.8594 21.2734 18.8594H24.3672C24.7943 18.8594 25.1406 19.2057 25.1406 19.6328V22.7266C25.1406 23.1537 24.7943 23.5 24.3672 23.5H21.2734C20.8463 23.5 20.5 23.1537 20.5 22.7266V19.6328ZM22.0469 20.4062V21.9531H23.5938V20.4062H22.0469Z" fill="#333333"/>
<path fill-rule="evenodd" clip-rule="evenodd" d="M7.09375 15.5078C7.09375 15.0807 7.44003 14.7344 7.86719 14.7344H11.9922C12.4193 14.7344 12.7656 15.0807 12.7656 15.5078C12.7656 15.935 12.4193 16.2812 11.9922 16.2812H7.86719C7.44003 16.2812 7.09375 15.935 7.09375 15.5078Z" fill="#333333"/>
<path fill-rule="evenodd" clip-rule="evenodd" d="M18.6953 8.54688C17.1291 8.54688 15.8594 9.81657 15.8594 11.3828C15.8594 12.9491 17.1291 14.2188 18.6953 14.2188C20.2616 14.2188 21.5312 12.9491 21.5312 11.3828C21.5312 9.81657 20.2616 8.54688 18.6953 8.54688ZM14.3125 11.3828C14.3125 8.96225 16.2748 7 18.6953 7C21.1159 7 23.0781 8.96225 23.0781 11.3828C23.0781 13.8034 21.1159 15.7656 18.6953 15.7656C16.2748 15.7656 14.3125 13.8034 14.3125 11.3828Z" fill="#333333"/>
<path d="M18.6953 12.9297C19.5496 12.9297 20.2422 12.2371 20.2422 11.3828C20.2422 10.5285 19.5496 9.83594 18.6953 9.83594C17.841 9.83594 17.1484 10.5285 17.1484 11.3828C17.1484 12.2371 17.841 12.9297 18.6953 12.9297Z" fill="#333333"/>
</svg>
