<svg width="30" height="30" viewBox="0 0 30 30" fill="none" xmlns="http://www.w3.org/2000/svg">
<path fill-rule="evenodd" clip-rule="evenodd" d="M12.2751 5.06941C12.4653 4.97986 12.6849 4.97683 12.8774 5.06108C15.0862 6.02739 16.1587 7.94996 16.6778 9.53972C16.7669 9.81231 16.8406 10.0778 16.9017 10.3308C17.5836 9.4798 18.6399 8.56376 20.1798 8.17877C20.3863 8.12716 20.6049 8.16838 20.7784 8.29159C20.9519 8.4148 21.0628 8.60769 21.0821 8.8196C21.1931 10.0408 21.522 10.8597 21.8424 11.5841C21.8725 11.6521 21.9034 11.7208 21.9345 11.7902C22.2242 12.435 22.5422 13.1427 22.5422 13.9853C22.5422 17.8748 19.3891 21.0279 15.4996 21.0279C11.6101 21.0279 8.45703 17.8748 8.45703 13.9853C8.45703 12.0436 9.14471 10.6911 9.89801 9.44689C10.0209 9.24387 10.1444 9.04523 10.2668 8.84813C10.8995 7.82981 11.5065 6.85285 11.8849 5.5284C11.9427 5.32628 12.0849 5.15895 12.2751 5.06941ZM17.162 12.7592C17.0488 13.0978 16.7068 13.3046 16.3543 13.2474C16.002 13.1902 15.743 12.8862 15.7424 12.5294C15.7424 12.5293 15.7424 12.5292 15.7424 12.5291C15.7424 12.529 15.7424 12.5289 15.7424 12.5287C15.7424 12.5287 15.7424 12.5287 15.7424 12.5287L15.7424 12.5291L15.7424 12.529L15.7424 12.5225L15.7417 12.4889C15.7409 12.4575 15.7393 12.4087 15.7359 12.3445C15.729 12.2159 15.7152 12.0263 15.6869 11.7919C15.6303 11.3213 15.5172 10.6794 15.2927 9.992C14.9091 8.81705 14.2247 7.57578 13.0024 6.7784C12.5698 7.90989 11.9974 8.82811 11.4837 9.65214C11.3668 9.83969 11.2529 10.0223 11.1445 10.2015C10.4407 11.364 9.91411 12.4399 9.91411 13.9853C9.91411 17.0701 12.4148 19.5708 15.4996 19.5708C18.5844 19.5708 21.0851 17.0701 21.0851 13.9853C21.0851 13.469 20.8976 13.0469 20.5837 12.34C20.5598 12.2862 20.5352 12.2308 20.5099 12.1735C20.2409 11.5654 19.9406 10.8367 19.7575 9.86564C18.9284 10.2493 18.3274 10.8453 17.9064 11.4138C17.6359 11.7789 17.4462 12.1245 17.3251 12.3768C17.2648 12.5025 17.2221 12.6037 17.1954 12.6708C17.1821 12.7044 17.1728 12.7293 17.1673 12.7443L17.1619 12.7594L17.162 12.7592ZM17.1619 12.7594L17.1618 12.7596L17.1616 12.7604L17.1613 12.761C17.1613 12.7611 17.1615 12.7606 17.1619 12.7594Z" fill="#333333"/>
<path fill-rule="evenodd" clip-rule="evenodd" d="M7.02192 21.0941C7.11951 20.7038 7.51506 20.4665 7.90541 20.564L23.4476 24.4496C23.838 24.5472 24.0753 24.9427 23.9777 25.3331C23.8801 25.7234 23.4846 25.9608 23.0942 25.8632L7.55202 21.9776C7.16167 21.88 6.92434 21.4845 7.02192 21.0941Z" fill="#333333"/>
<path fill-rule="evenodd" clip-rule="evenodd" d="M23.9777 21.0941C24.0753 21.4845 23.838 21.88 23.4476 21.9776L7.90541 25.8632C7.51506 25.9608 7.11951 25.7234 7.02192 25.3331C6.92434 24.9427 7.16167 24.5472 7.55202 24.4496L23.0942 20.564C23.4846 20.4665 23.8801 20.7038 23.9777 21.0941Z" fill="#333333"/>
</svg>
