<svg width="15" height="15" viewBox="0 0 15 15" fill="none" xmlns="http://www.w3.org/2000/svg">
<path d="M13.7273 11.456C13.7273 11.681 13.6773 11.9123 13.5711 12.1373C13.4648 12.3623 13.3273 12.5748 13.1461 12.7748C12.8398 13.1123 12.5023 13.356 12.1211 13.5123C11.7461 13.6685 11.3398 13.7498 10.9023 13.7498C10.2648 13.7498 9.5836 13.5998 8.86484 13.2935C8.14609 12.9873 7.42734 12.5748 6.71484 12.056C5.99609 11.531 5.31484 10.9498 4.66484 10.306C4.02109 9.656 3.43984 8.97476 2.92109 8.26226C2.40859 7.54976 1.99609 6.83726 1.69609 6.13101C1.39609 5.41851 1.24609 4.73726 1.24609 4.08726C1.24609 3.66226 1.32109 3.25601 1.47109 2.88101C1.62109 2.49976 1.85859 2.14976 2.18984 1.83726C2.58984 1.44351 3.02734 1.24976 3.48984 1.24976C3.66484 1.24976 3.83984 1.28726 3.99609 1.36226C4.15859 1.43726 4.30234 1.54976 4.41484 1.71226L5.86484 3.75601C5.97734 3.91226 6.05859 4.05601 6.11484 4.19351C6.17109 4.32476 6.20234 4.45601 6.20234 4.57476C6.20234 4.72476 6.15859 4.87476 6.07109 5.01851C5.98984 5.16226 5.87109 5.31226 5.72109 5.46226L5.24609 5.95601C5.17734 6.02476 5.14609 6.10601 5.14609 6.20601C5.14609 6.25601 5.15234 6.29976 5.16484 6.34976C5.18359 6.39976 5.20234 6.43726 5.21484 6.47476C5.32734 6.68101 5.52109 6.94976 5.79609 7.27476C6.07734 7.59976 6.37734 7.93101 6.70234 8.26226C7.03984 8.59351 7.36484 8.89975 7.69609 9.181C8.02109 9.456 8.28984 9.6435 8.50234 9.756C8.53359 9.7685 8.5711 9.78725 8.61485 9.806C8.66485 9.82475 8.71485 9.831 8.7711 9.831C8.87735 9.831 8.9586 9.79351 9.02735 9.72476L9.50235 9.25601C9.6586 9.09976 9.8086 8.98101 9.95235 8.90601C10.0961 8.81851 10.2398 8.77476 10.3961 8.77476C10.5148 8.77476 10.6398 8.79976 10.7773 8.85601C10.9148 8.91226 11.0586 8.99351 11.2148 9.09976L13.2836 10.5685C13.4461 10.681 13.5586 10.8123 13.6273 10.9685C13.6898 11.1248 13.7273 11.281 13.7273 11.456Z" stroke="black" stroke-miterlimit="10"/>
</svg>
