<svg width="30" height="30" viewBox="0 0 30 30" fill="none" xmlns="http://www.w3.org/2000/svg">
<path fill-rule="evenodd" clip-rule="evenodd" d="M11.7918 3.03044C12.1751 2.92433 12.5801 3.10256 12.7609 3.45684C13.1773 4.27311 14.0245 4.82912 15 4.82912C15.9755 4.82912 16.8227 4.27311 17.2391 3.45684C17.4199 3.10256 17.8249 2.92433 18.2082 3.03044C20.0885 3.55094 21.7824 4.517 23.1694 5.80669C23.4403 6.05855 23.5138 6.4583 23.3502 6.79003C23.1858 7.12345 23.093 7.49914 23.093 7.89888C23.093 9.28601 24.2175 10.4105 25.6047 10.4105L25.6397 10.4103C26.0098 10.405 26.3395 10.6434 26.4504 10.9965C26.8077 12.134 27 13.3436 27 14.5966C27 15.4235 26.9162 16.2318 26.7564 17.0131C26.6705 17.4332 26.2811 17.7204 25.8543 17.6785C25.7725 17.6705 25.6893 17.6663 25.6047 17.6663C24.2175 17.6663 23.093 18.7908 23.093 20.1779C23.093 20.7954 23.3147 21.3589 23.6838 21.7963C23.9604 22.1241 23.9446 22.6078 23.6472 22.9167C22.2309 24.3884 20.4414 25.5001 18.4293 26.0992C17.9924 26.2292 17.5318 25.9859 17.393 25.5517C17.069 24.5381 16.1189 23.8059 15 23.8059C13.8811 23.8059 12.931 24.5381 12.607 25.5517C12.4682 25.9859 12.0076 26.2292 11.5707 26.0992C9.55864 25.5001 7.76907 24.3884 6.35278 22.9168C6.05543 22.6078 6.03962 22.1241 6.31615 21.7963C6.68527 21.3588 6.90698 20.7954 6.90698 20.1779C6.90698 18.7908 5.78248 17.6663 4.39535 17.6663C4.31077 17.6663 4.22749 17.6705 4.14568 17.6785C3.71895 17.7204 3.32951 17.4332 3.24358 17.0131C3.08378 16.2318 3 15.4235 3 14.5966C3 13.3436 3.19231 12.134 3.54962 10.9965C3.66054 10.6434 3.99019 10.405 4.3603 10.4103L4.39535 10.4105C5.78248 10.4105 6.90698 9.28601 6.90698 7.89888C6.90698 7.49914 6.8142 7.12345 6.64981 6.79003C6.48625 6.4583 6.55975 6.05855 6.83061 5.80669C8.21761 4.517 9.91148 3.55094 11.7918 3.03044ZM8.39472 6.65971C8.51612 7.05188 8.5814 7.46826 8.5814 7.89888C8.5814 10.008 7.02152 11.7529 4.99248 12.0427C4.7849 12.8587 4.67442 13.7142 4.67442 14.5966C4.67442 15.0759 4.70702 15.5472 4.77005 16.0084C6.90639 16.198 8.5814 17.9923 8.5814 20.1779C8.5814 20.9224 8.38649 21.6225 8.04526 22.2288C9.00162 23.1008 10.1219 23.7951 11.3538 24.2602C12.0721 22.9898 13.435 22.1314 15 22.1314C16.565 22.1314 17.9279 22.9898 18.6462 24.2602C19.8781 23.7951 20.9984 23.1008 21.9547 22.2288C21.6135 21.6225 21.4186 20.9224 21.4186 20.1779C21.4186 17.9923 23.0936 16.198 25.23 16.0084C25.293 15.5472 25.3256 15.0759 25.3256 14.5966C25.3256 13.7142 25.2151 12.8587 25.0075 12.0427C22.9785 11.7529 21.4186 10.008 21.4186 7.89888C21.4186 7.46826 21.4839 7.05189 21.6053 6.65971C20.6503 5.86401 19.5502 5.23783 18.3509 4.8266C17.588 5.84377 16.3715 6.50353 15 6.50353C13.6285 6.50353 12.412 5.84377 11.6491 4.8266C10.4498 5.23783 9.34965 5.86401 8.39472 6.65971Z" fill="#333333"/>
<path fill-rule="evenodd" clip-rule="evenodd" d="M10.2559 14.5965C10.2559 11.9764 12.3799 9.85233 15 9.85233C17.6202 9.85233 19.7442 11.9764 19.7442 14.5965C19.7442 17.2167 17.6202 19.3407 15 19.3407C12.3799 19.3407 10.2559 17.2167 10.2559 14.5965ZM15 11.5267C13.3047 11.5267 11.9303 12.9011 11.9303 14.5965C11.9303 16.2919 13.3047 17.6663 15 17.6663C16.6954 17.6663 18.0698 16.2919 18.0698 14.5965C18.0698 12.9011 16.6954 11.5267 15 11.5267Z" fill="#333333"/>
</svg>
