<svg width="30" height="30" viewBox="0 0 30 30" fill="none" xmlns="http://www.w3.org/2000/svg">
<path fill-rule="evenodd" clip-rule="evenodd" d="M15.2502 15.6923C15.7281 15.6923 16.1155 16.0797 16.1155 16.5576V23.4807C16.1155 23.9587 15.7281 24.3461 15.2502 24.3461C14.7722 24.3461 14.3848 23.9587 14.3848 23.4807V16.5576C14.3848 16.0797 14.7722 15.6923 15.2502 15.6923Z" fill="#333333"/>
<path fill-rule="evenodd" clip-rule="evenodd" d="M15.2502 4.15381C15.7281 4.15381 16.1155 4.54125 16.1155 5.01919V16.5577C16.1155 17.0356 15.7281 17.423 15.2502 17.423C14.7722 17.423 14.3848 17.0356 14.3848 16.5577V5.01919C14.3848 4.54125 14.7722 4.15381 15.2502 4.15381Z" fill="#333333"/>
<path fill-rule="evenodd" clip-rule="evenodd" d="M15.2502 3C15.7281 3 16.1155 3.38745 16.1155 3.86538V5.01923C16.1155 5.49717 15.7281 5.88462 15.2502 5.88462C14.7722 5.88462 14.3848 5.49717 14.3848 5.01923V3.86538C14.3848 3.38745 14.7722 3 15.2502 3Z" fill="#333333"/>
<path fill-rule="evenodd" clip-rule="evenodd" d="M25.0931 20.5612C25.4311 20.8992 25.4311 21.4471 25.0931 21.785L21.6316 25.2466C21.4693 25.4089 21.2492 25.5 21.0197 25.5H6.01968C5.54174 25.5 5.1543 25.1126 5.1543 24.6347C5.1543 24.1567 5.54174 23.7693 6.01968 23.7693H20.6612L23.8693 20.5612C24.2073 20.2233 24.7552 20.2233 25.0931 20.5612Z" fill="#333333"/>
<path fill-rule="evenodd" clip-rule="evenodd" d="M10.0578 23.7692C10.5357 23.7692 10.9232 24.1567 10.9232 24.6346V26.9423C10.9232 27.4202 10.5357 27.8077 10.0578 27.8077C9.57983 27.8077 9.19238 27.4202 9.19238 26.9423V24.6346C9.19238 24.1567 9.57983 23.7692 10.0578 23.7692Z" fill="#333333"/>
<path fill-rule="evenodd" clip-rule="evenodd" d="M19.8654 23.7692C20.3433 23.7692 20.7308 24.1567 20.7308 24.6346V26.9423C20.7308 27.4202 20.3433 27.8077 19.8654 27.8077C19.3874 27.8077 19 27.4202 19 26.9423V24.6346C19 24.1567 19.3874 23.7692 19.8654 23.7692Z" fill="#333333"/>
<path fill-rule="evenodd" clip-rule="evenodd" d="M4 15.3718C4 9.17376 9.03934 4.15384 15.25 4.15384C21.4607 4.15384 26.5 9.17376 26.5 15.3718V16.5577C26.5 17.0356 26.1126 17.4231 25.6346 17.4231C25.1567 17.4231 24.7692 17.0356 24.7692 16.5577C24.7692 16.0685 24.5655 15.5447 24.2201 15.1459C23.8763 14.749 23.4512 14.5385 23.0385 14.5385C22.6257 14.5385 22.2006 14.749 21.8569 15.1459C21.5115 15.5447 21.3077 16.0685 21.3077 16.5577C21.3077 17.0356 20.9202 17.4231 20.4423 17.4231C19.9644 17.4231 19.5769 17.0356 19.5769 16.5577C19.5769 16.0685 19.3732 15.5447 19.0278 15.1459C18.684 14.749 18.2589 14.5385 17.8462 14.5385C17.4334 14.5385 17.0083 14.749 16.6646 15.1459C16.3191 15.5447 16.1154 16.0685 16.1154 16.5577C16.1154 17.0356 15.7279 17.4231 15.25 17.4231C14.7721 17.4231 14.3846 17.0356 14.3846 16.5577C14.3846 16.0685 14.1809 15.5447 13.8354 15.1459C13.4917 14.749 13.0666 14.5385 12.6538 14.5385C12.2411 14.5385 11.816 14.749 11.4722 15.1459C11.1268 15.5447 10.9231 16.0685 10.9231 16.5577C10.9231 17.0356 10.5356 17.4231 10.0577 17.4231C9.57975 17.4231 9.19231 17.0356 9.19231 16.5577C9.19231 16.0685 8.98855 15.5447 8.64314 15.1459C8.29942 14.749 7.87427 14.5385 7.46154 14.5385C7.04882 14.5385 6.62366 14.749 6.27994 15.1459C5.93453 15.5447 5.73077 16.0685 5.73077 16.5577C5.73077 17.0356 5.34332 17.4231 4.86538 17.4231C4.38745 17.4231 4 17.0356 4 16.5577V15.3718ZM5.98349 13.1911C6.4219 12.9526 6.92095 12.8077 7.46154 12.8077C8.48264 12.8077 9.35556 13.3247 9.95147 14.0128C9.98769 14.0547 10.0231 14.0974 10.0577 14.1409C10.0923 14.0974 10.1277 14.0547 10.1639 14.0128C10.7598 13.3247 11.6327 12.8077 12.6538 12.8077C13.6749 12.8077 14.5479 13.3247 15.1438 14.0128C15.18 14.0547 15.2154 14.0974 15.25 14.1409C15.2846 14.0974 15.32 14.0547 15.3562 14.0128C15.9521 13.3247 16.8251 12.8077 17.8462 12.8077C18.8673 12.8077 19.7402 13.3247 20.3361 14.0128C20.3723 14.0547 20.4077 14.0974 20.4423 14.1409C20.4769 14.0974 20.5123 14.0547 20.5485 14.0128C21.1444 13.3247 22.0174 12.8077 23.0385 12.8077C23.579 12.8077 24.0781 12.9526 24.5165 13.1911C23.5282 9.00407 19.7562 5.88461 15.25 5.88461C10.7438 5.88461 6.97184 9.00407 5.98349 13.1911Z" fill="#333333"/>
<path fill-rule="evenodd" clip-rule="evenodd" d="M15.7154 5.74933C15.7151 5.7495 15.7156 5.74917 15.7154 5.74933L15.2507 5.01928C15.7154 5.74933 15.7152 5.74943 15.7154 5.74933L15.7121 5.75146L15.6913 5.76505C15.6719 5.7779 15.6413 5.79828 15.6009 5.82597C15.5201 5.88138 15.4001 5.96589 15.2502 6.07781C14.9499 6.30198 14.5325 6.63415 14.0721 7.06048C13.1433 7.92059 12.0789 9.12782 11.4233 10.5698C10.773 12 10.6375 13.4449 10.671 14.5483C10.6876 15.0974 10.7459 15.5534 10.7991 15.8683C10.8256 16.0254 10.8507 16.1466 10.8685 16.2258C10.8774 16.2654 10.8844 16.2943 10.8888 16.312L10.8933 16.3298L10.0585 16.5577C9.2236 16.7855 9.22352 16.7852 9.22344 16.7849L9.22284 16.7827L9.22177 16.7787L9.21875 16.7673L9.20943 16.7307C9.20185 16.7003 9.19167 16.658 9.17969 16.6046C9.15575 16.4978 9.12453 16.3464 9.09246 16.1565C9.02842 15.7773 8.96044 15.2416 8.94101 14.6008C8.90232 13.3244 9.05533 11.5963 9.84773 9.85342C10.6348 8.12227 11.878 6.73334 12.8961 5.79057C13.4092 5.31546 13.8751 4.9445 14.2148 4.69092C14.3848 4.56395 14.5239 4.46592 14.6222 4.3985C14.6714 4.36478 14.7105 4.33868 14.7382 4.32041L14.7711 4.29888L14.7809 4.29255L14.784 4.29051L14.7852 4.28977C14.7854 4.28964 14.7861 4.28922 15.2507 5.01928L14.7852 4.28977C15.1884 4.03315 15.7242 4.15142 15.9808 4.55462C16.2372 4.95756 16.118 5.49252 15.7154 5.74933ZM10.8933 16.3298C10.8934 16.33 10.8933 16.3296 10.8933 16.3298ZM10.8933 16.3298C11.0188 16.7907 10.7471 17.2669 10.2862 17.3926C9.82514 17.5184 9.34922 17.246 9.22344 16.7849L10.0585 16.5577" fill="#333333"/>
<path fill-rule="evenodd" clip-rule="evenodd" d="M14.4941 4.59895C14.7263 4.18116 15.2531 4.03064 15.6709 4.26276L15.2506 5.01923C15.6709 4.26276 15.6706 4.26257 15.6709 4.26276L15.6723 4.26354L15.6739 4.26445L15.6779 4.2667L15.6888 4.27286L15.7214 4.29191C15.7479 4.30763 15.7838 4.32942 15.8282 4.35753C15.9168 4.41372 16.0395 4.49522 16.1885 4.60384C16.4864 4.82095 16.8909 5.14724 17.3409 5.59722C18.2416 6.49794 19.3254 7.89549 20.0968 9.90085C20.8492 11.8569 21.1535 13.5209 21.2683 14.7075C21.3257 15.3007 21.3357 15.7747 21.3308 16.1064C21.3283 16.2723 21.322 16.4027 21.3161 16.4948C21.3131 16.5408 21.3102 16.5773 21.3078 16.6038L21.3048 16.6362L21.3037 16.6467L21.3033 16.6505L21.3031 16.652C21.3031 16.6523 21.303 16.6533 20.4533 16.5588L21.303 16.6533C21.2502 17.1283 20.8223 17.4706 20.3473 17.4178C19.8726 17.365 19.5306 16.9377 19.5827 16.4632C19.5827 16.4631 19.5827 16.4633 19.5827 16.4632L19.5838 16.4514C19.585 16.4381 19.5868 16.4151 19.5889 16.3828C19.5931 16.3183 19.5982 16.2166 19.6002 16.0805C19.6043 15.8083 19.5963 15.3988 19.5456 14.8742C19.4441 13.8252 19.1715 12.3162 18.4814 10.5222C17.8103 8.77759 16.8749 7.57898 16.117 6.82105C15.7377 6.44171 15.403 6.17304 15.1691 6.00253C15.0522 5.91733 14.9607 5.85686 14.9018 5.81953C14.8724 5.80087 14.8511 5.78802 14.8389 5.78077L14.8274 5.7741C14.8274 5.77404 14.8275 5.77414 14.8274 5.7741" fill="#333333"/>
<path fill-rule="evenodd" clip-rule="evenodd" d="M15.2502 4.15381C15.7281 4.15381 16.1155 4.54125 16.1155 5.01919V15.9807C16.1155 16.4587 15.7281 16.8461 15.2502 16.8461C14.7722 16.8461 14.3848 16.4587 14.3848 15.9807V5.01919C14.3848 4.54125 14.7722 4.15381 15.2502 4.15381Z" fill="#333333"/>
<path fill-rule="evenodd" clip-rule="evenodd" d="M16.9805 13.6731C16.9805 13.1952 17.3679 12.8077 17.8459 12.8077C18.867 12.8077 19.7399 13.3248 20.3358 14.0129C20.372 14.0547 20.4074 14.0974 20.442 14.1409C20.4766 14.0974 20.512 14.0547 20.5482 14.0129C21.1441 13.3248 22.0171 12.8077 23.0382 12.8077C23.5161 12.8077 23.9035 13.1952 23.9035 13.6731C23.9035 14.1511 23.5161 14.5385 23.0382 14.5385C22.6254 14.5385 22.2003 14.7491 21.8566 15.1459C21.5112 15.5448 21.3074 16.0685 21.3074 16.5577C21.3074 17.0357 20.9199 17.4231 20.442 17.4231C19.9641 17.4231 19.5766 17.0357 19.5766 16.5577C19.5766 16.0685 19.3729 15.5448 19.0275 15.1459C18.6837 14.7491 18.2586 14.5385 17.8459 14.5385C17.3679 14.5385 16.9805 14.1511 16.9805 13.6731Z" fill="#333333"/>
<path fill-rule="evenodd" clip-rule="evenodd" d="M11.7881 13.6731C11.7881 13.1952 12.1755 12.8077 12.6535 12.8077C13.6746 12.8077 14.5475 13.3248 15.1434 14.0129C15.1796 14.0547 15.215 14.0974 15.2496 14.1409C15.2842 14.0974 15.3196 14.0547 15.3559 14.0129C15.9518 13.3248 16.8247 12.8077 17.8458 12.8077C18.3237 12.8077 18.7112 13.1952 18.7112 13.6731C18.7112 14.1511 18.3237 14.5385 17.8458 14.5385C17.4331 14.5385 17.0079 14.7491 16.6642 15.1459C16.3188 15.5448 16.115 16.0685 16.115 16.5577C16.115 17.0357 15.7276 17.4231 15.2496 17.4231C14.7717 17.4231 14.3842 17.0357 14.3842 16.5577C14.3842 16.0685 14.1805 15.5448 13.8351 15.1459C13.4914 14.7491 13.0662 14.5385 12.6535 14.5385C12.1755 14.5385 11.7881 14.1511 11.7881 13.6731Z" fill="#333333"/>
<path fill-rule="evenodd" clip-rule="evenodd" d="M6.5957 13.6731C6.5957 13.1952 6.98315 12.8077 7.46109 12.8077C8.48219 12.8077 9.35511 13.3248 9.95101 14.0129C9.98724 14.0547 10.0227 14.0974 10.0572 14.1409C10.0918 14.0974 10.1272 14.0547 10.1635 14.0129C10.7594 13.3248 11.6323 12.8077 12.6534 12.8077C13.1313 12.8077 13.5188 13.1952 13.5188 13.6731C13.5188 14.1511 13.1313 14.5385 12.6534 14.5385C12.2407 14.5385 11.8155 14.7491 11.4718 15.1459C11.1264 15.5448 10.9226 16.0685 10.9226 16.5577C10.9226 17.0357 10.5352 17.4231 10.0572 17.4231C9.5793 17.4231 9.19186 17.0357 9.19186 16.5577C9.19186 16.0685 8.9881 15.5448 8.64269 15.1459C8.29897 14.7491 7.87381 14.5385 7.46109 14.5385C6.98315 14.5385 6.5957 14.1511 6.5957 13.6731Z" fill="#333333"/>
<path fill-rule="evenodd" clip-rule="evenodd" d="M15.2499 5.88458C13.6719 5.88458 12.186 6.26657 10.8778 6.94199C10.4531 7.16124 9.93111 6.99472 9.71185 6.57004C9.49259 6.14537 9.65912 5.62335 10.0838 5.40409C11.6318 4.60484 13.3893 4.15381 15.2499 4.15381C17.1104 4.15381 18.8679 4.60484 20.4159 5.4041C20.8406 5.62337 21.0071 6.14538 20.7878 6.57006C20.5686 6.99473 20.0466 7.16125 19.6219 6.94198C18.3138 6.26658 16.8278 5.88458 15.2499 5.88458Z" fill="#333333"/>
</svg>
