<svg width="30" height="30" viewBox="0 0 30 30" fill="none" xmlns="http://www.w3.org/2000/svg">
<path fill-rule="evenodd" clip-rule="evenodd" d="M5 10.0449C5 9.60941 5.35301 9.25641 5.78846 9.25641H24.7115C25.147 9.25641 25.5 9.60941 25.5 10.0449V15.3013C25.5 15.4237 25.4715 15.5444 25.4168 15.6539C24.3187 17.85 22.9221 19.5444 21.2066 20.6881C19.4862 21.835 17.4905 22.3974 15.25 22.3974C13.0095 22.3974 11.0138 21.835 9.29341 20.6881C7.57793 19.5444 6.18129 17.85 5.08324 15.6539C5.0285 15.5444 5 15.4237 5 15.3013V10.0449ZM6.57692 10.8333V15.1129C7.56597 17.0374 8.76925 18.4434 10.1681 19.376C11.6016 20.3316 13.2854 20.8205 15.25 20.8205C17.2146 20.8205 18.8984 20.3316 20.3319 19.376C21.7307 18.4434 22.934 17.0374 23.9231 15.1129V10.8333H6.57692Z" fill="#333333"/>
<path fill-rule="evenodd" clip-rule="evenodd" d="M10.4405 19.7733C10.8738 19.7299 11.2602 20.0461 11.3035 20.4794L11.7582 25.0258H18.7413L19.196 20.4794C19.2393 20.0461 19.6257 19.7299 20.059 19.7733C20.4923 19.8166 20.8084 20.203 20.7651 20.6363L20.2394 25.8927C20.1991 26.2957 19.86 26.6027 19.4549 26.6027H11.0446C10.6396 26.6027 10.3004 26.2957 10.2601 25.8927L9.73444 20.6363C9.69111 20.203 10.0072 19.8166 10.4405 19.7733Z" fill="#333333"/>
<path fill-rule="evenodd" clip-rule="evenodd" d="M13.4102 15.3013C13.4102 14.8658 13.7632 14.5128 14.1986 14.5128H16.3012C16.7366 14.5128 17.0896 14.8658 17.0896 15.3013C17.0896 15.7367 16.7366 16.0897 16.3012 16.0897H14.1986C13.7632 16.0897 13.4102 15.7367 13.4102 15.3013Z" fill="#333333"/>
<path fill-rule="evenodd" clip-rule="evenodd" d="M11.0445 9.7821C10.6091 9.7821 10.2561 9.4291 10.2561 8.99364V4.78851C10.2561 4.35306 10.6091 4.00005 11.0445 4.00005C11.48 4.00005 11.833 4.35306 11.833 4.78851V8.99364C11.833 9.4291 11.48 9.7821 11.0445 9.7821Z" fill="#333333"/>
<path fill-rule="evenodd" clip-rule="evenodd" d="M19.4547 9.7821C19.0192 9.7821 18.6662 9.4291 18.6662 8.99364V4.78851C18.6662 4.35306 19.0192 4.00005 19.4547 4.00005C19.8902 4.00005 20.2432 4.35306 20.2432 4.78851V8.99364C20.2432 9.4291 19.8902 9.7821 19.4547 9.7821Z" fill="#333333"/>
</svg>
