<svg width="30" height="30" viewBox="0 0 30 30" fill="none" xmlns="http://www.w3.org/2000/svg">
<path fill-rule="evenodd" clip-rule="evenodd" d="M15.2798 8.76505C13.3791 8.76505 11.8383 10.3058 11.8383 12.2065V24.9133C11.8383 25.0595 11.9569 25.178 12.1031 25.178H18.4565C18.6027 25.178 18.7212 25.0595 18.7212 24.9133V12.2065C18.7212 10.3058 17.1804 8.76505 15.2798 8.76505ZM10.25 12.2065C10.25 9.42859 12.5019 7.1767 15.2798 7.1767C18.0577 7.1767 20.3095 9.42859 20.3095 12.2065V24.9133C20.3095 25.9367 19.4799 26.7663 18.4565 26.7663H12.1031C11.0796 26.7663 10.25 25.9367 10.25 24.9133V12.2065Z" fill="#333333"/>
<path fill-rule="evenodd" clip-rule="evenodd" d="M15.2795 14.589C15.7181 14.589 16.0737 14.9446 16.0737 15.3832V20.6777C16.0737 21.1163 15.7181 21.4718 15.2795 21.4718C14.8409 21.4718 14.4854 21.1163 14.4854 20.6777V15.3832C14.4854 14.9446 14.8409 14.589 15.2795 14.589Z" fill="#333333"/>
<path fill-rule="evenodd" clip-rule="evenodd" d="M12.3682 5.32359C12.3682 4.88498 12.7237 4.52942 13.1623 4.52942H17.9274C18.366 4.52942 18.7216 4.88498 18.7216 5.32359V7.44139C18.7216 7.88001 18.366 8.23557 17.9274 8.23557H13.1623C12.7237 8.23557 12.3682 7.88001 12.3682 7.44139V5.32359ZM13.9565 6.11777V6.64722H17.1332V6.11777H13.9565Z" fill="#333333"/>
<path fill-rule="evenodd" clip-rule="evenodd" d="M23.2217 4.20242C23.39 4.35307 23.4862 4.56828 23.4862 4.79418V7.97088C23.4862 8.19678 23.39 8.41199 23.2217 8.56264C23.0534 8.7133 22.8289 8.78514 22.6043 8.7602L17.8393 8.23075C17.4371 8.18606 17.1328 7.8461 17.1328 7.44143V5.32363C17.1328 4.91896 17.4371 4.579 17.8393 4.53431L22.6043 4.00486C22.8289 3.97992 23.0534 4.05176 23.2217 4.20242ZM18.7212 6.03445V6.73061L21.8979 7.08358V5.68148L18.7212 6.03445Z" fill="#333333"/>
<path fill-rule="evenodd" clip-rule="evenodd" d="M12.5361 5.57901C12.7646 5.58389 12.9758 5.58841 13.162 5.58841C13.6006 5.58841 13.9562 5.94397 13.9562 6.38258C13.9562 6.82119 13.6006 7.17676 13.162 7.17676C12.9117 7.17676 12.6594 7.17137 12.4056 7.16594C11.7789 7.15254 11.1421 7.13893 10.4972 7.20563C9.60778 7.29765 8.90041 7.53174 8.4291 8.00304C8.4291 8.00304 8.4291 8.00305 8.42909 8.00305M8.42909 8.00305C7.93032 8.50185 7.7302 8.99497 7.64515 9.61719C7.57708 10.1152 7.58481 10.6463 7.59467 11.3244C7.59858 11.593 7.60282 11.8847 7.60282 12.2065C7.60282 12.6451 7.24726 13.0007 6.80865 13.0007C6.37004 13.0007 6.01447 12.6451 6.01447 12.2065C6.01447 11.9576 6.01078 11.7087 6.00713 11.4622C5.99635 10.7347 5.98588 10.028 6.07143 9.40207C6.19596 8.49111 6.52528 7.66062 7.30595 6.87993L7.30596 6.87992C8.15828 6.0276 9.30398 5.73225 10.3338 5.62572C11.0849 5.54801 11.8811 5.56502 12.5361 5.57901" fill="#333333"/>
</svg>
