<svg width="30" height="30" viewBox="0 0 30 30" fill="none" xmlns="http://www.w3.org/2000/svg">
<path fill-rule="evenodd" clip-rule="evenodd" d="M3.11621 4.87743C3.11621 4.39284 3.50905 4 3.99364 4H26.2219C26.7064 4 27.0993 4.39284 27.0993 4.87743C27.0993 5.36202 26.7064 5.75486 26.2219 5.75486H3.99364C3.50905 5.75486 3.11621 5.36202 3.11621 4.87743Z" fill="#333333"/>
<path fill-rule="evenodd" clip-rule="evenodd" d="M14.5229 4C15.0075 4 15.4004 4.39284 15.4004 4.87743V14.8216C15.4004 15.3062 15.0075 15.6991 14.5229 15.6991C14.0383 15.6991 13.6455 15.3062 13.6455 14.8216V4.87743C13.6455 4.39284 14.0383 4 14.5229 4Z" fill="#333333"/>
<path fill-rule="evenodd" clip-rule="evenodd" d="M5.55828 12.0611C5.75981 11.9448 5.99931 11.9132 6.22409 11.9735L24.8698 16.9696C25.1422 17.0426 25.363 17.2421 25.463 17.5058C25.5631 17.7695 25.5303 18.0652 25.3749 18.3006L24.3743 19.8161L22.0494 24.004C22.0385 24.0237 22.0268 24.0429 22.0145 24.0616L20.9952 25.6053C20.7872 25.9204 20.4007 26.0671 20.0359 25.9693L3.65034 21.5789C3.42556 21.5186 3.23391 21.3716 3.11756 21.17C3.0012 20.9685 2.96967 20.729 3.0299 20.5042L5.14946 12.5939C5.20969 12.3691 5.35675 12.1775 5.55828 12.0611ZM6.61743 13.8956L4.95206 20.1109L19.8793 24.1106L20.5315 23.1228L22.8563 18.9349C22.8672 18.9153 22.8789 18.8961 22.8913 18.8773L23.2397 18.3496L6.61743 13.8956Z" fill="#333333"/>
<path fill-rule="evenodd" clip-rule="evenodd" d="M22.7756 19.1337C22.9011 18.6656 23.3822 18.3878 23.8503 18.5133L26.1103 19.1189C26.5784 19.2443 26.8562 19.7254 26.7308 20.1935L25.5196 24.7137C25.4594 24.9384 25.3123 25.1301 25.1108 25.2464C24.9093 25.3628 24.6698 25.3943 24.445 25.3341L21.0549 24.4257C20.5868 24.3003 20.309 23.8192 20.4344 23.3511C20.5598 22.883 21.041 22.6052 21.509 22.7307L24.0517 23.4119L24.8086 20.5868L23.3961 20.2083C22.928 20.0829 22.6502 19.6018 22.7756 19.1337Z" fill="#333333"/>
</svg>
